<svg width="22" height="30" viewBox="0 0 22 30" fill="none" xmlns="http://www.w3.org/2000/svg">
<path d="M1.36279 30C0.989149 30 0.802327 29.8275 0.802327 29.4826V1.5456C0.802327 1.17196 0.989149 0.985135 1.36279 0.985135H8.64884C10.8907 0.985135 12.7014 1.28692 14.081 1.8905C15.4894 2.46534 16.5241 3.39945 17.1852 4.69283C17.8462 5.98621 18.1768 7.73946 18.1768 9.95258C18.1768 11.5046 17.9037 12.9561 17.3576 14.307C16.8115 15.6578 15.9493 16.7788 14.7709 17.6698C14.3685 18.0434 14.0667 18.3883 13.8655 18.7045C13.693 19.0206 13.7649 19.4374 14.081 19.9547C14.311 20.4721 14.5697 20.9894 14.8571 21.5068C15.1445 21.9954 15.4607 22.4409 15.8056 22.8433C16.1505 23.2457 16.5385 23.5906 16.9696 23.878C17.4295 24.1942 17.9468 24.4385 18.5217 24.6109C19.0965 24.7834 19.7719 24.8696 20.548 24.8696C20.8066 24.8696 20.9647 24.8983 21.0222 24.9558C21.1084 25.0133 21.1515 25.2001 21.1515 25.5163V29.4826C21.1515 29.6551 21.1228 29.7701 21.0653 29.8275C21.0078 29.885 20.8354 29.9281 20.548 29.9569C20.2605 29.9856 19.7719 30 19.0821 30C17.9037 30 16.8115 29.8275 15.8056 29.4826C14.8283 29.1377 13.9373 28.6635 13.1326 28.0599C12.414 27.5138 11.7386 26.8671 11.1063 26.1199C10.5027 25.3438 9.97097 24.5103 9.5111 23.6193C9.05123 22.7283 8.64884 21.7942 8.30394 20.817C8.2752 20.7595 8.21772 20.6014 8.13149 20.3427C8.04527 20.0841 7.91593 19.9547 7.74348 19.9547H6.75188C6.57943 19.9547 6.49321 20.1703 6.49321 20.6014V29.4826C6.49321 29.8275 6.29201 30 5.88963 30H1.36279ZM6.49321 15.083C6.49321 15.198 6.52195 15.2842 6.57943 15.3417C6.63692 15.3992 6.72314 15.4279 6.83811 15.4279H8.56262C9.82726 15.4279 10.8189 14.9537 11.5374 14.0052C12.2559 13.028 12.6152 11.6915 12.6152 9.9957C12.6152 8.58735 12.4428 7.5239 12.0979 6.80535C11.7817 6.08681 11.3075 5.5982 10.6751 5.33952C10.0716 5.08084 9.32428 4.95151 8.43328 4.95151H6.83811C6.6944 4.95151 6.5938 4.96588 6.53632 4.99462C6.50758 5.02336 6.49321 5.13833 6.49321 5.33952V15.083Z" fill="white"/>
</svg>
