<svg width="75" height="30" viewBox="0 0 75 30" fill="none" xmlns="http://www.w3.org/2000/svg">
<path d="M1.36279 30C0.989149 30 0.802327 29.8275 0.802327 29.4826V1.5456C0.802327 1.17196 0.989149 0.985135 1.36279 0.985135H8.64884C10.8907 0.985135 12.7014 1.28692 14.081 1.8905C15.4894 2.46534 16.5241 3.39945 17.1852 4.69283C17.8462 5.98621 18.1768 7.73946 18.1768 9.95258C18.1768 11.5046 17.9037 12.9561 17.3576 14.307C16.8115 15.6578 15.9493 16.7788 14.7709 17.6698C14.3685 18.0434 14.0667 18.3883 13.8655 18.7045C13.693 19.0206 13.7649 19.4374 14.081 19.9547C14.311 20.4721 14.5697 20.9894 14.8571 21.5068C15.1445 21.9954 15.4607 22.4409 15.8056 22.8433C16.1505 23.2457 16.5385 23.5906 16.9696 23.878C17.4295 24.1942 17.9468 24.4385 18.5217 24.6109C19.0965 24.7834 19.7719 24.8696 20.548 24.8696C20.8066 24.8696 20.9647 24.8983 21.0222 24.9558C21.1084 25.0133 21.1515 25.2001 21.1515 25.5163V29.4826C21.1515 29.6551 21.1228 29.7701 21.0653 29.8275C21.0078 29.885 20.8354 29.9281 20.548 29.9569C20.2605 29.9856 19.7719 30 19.0821 30C17.9037 30 16.8115 29.8275 15.8056 29.4826C14.8283 29.1377 13.9373 28.6635 13.1326 28.0599C12.414 27.5138 11.7386 26.8671 11.1063 26.1199C10.5027 25.3438 9.97097 24.5103 9.5111 23.6193C9.05123 22.7283 8.64884 21.7942 8.30394 20.817C8.2752 20.7595 8.21772 20.6014 8.13149 20.3427C8.04527 20.0841 7.91593 19.9547 7.74348 19.9547H6.75188C6.57943 19.9547 6.49321 20.1703 6.49321 20.6014V29.4826C6.49321 29.8275 6.29201 30 5.88963 30H1.36279ZM6.49321 15.083C6.49321 15.198 6.52195 15.2842 6.57943 15.3417C6.63692 15.3992 6.72314 15.4279 6.83811 15.4279H8.56262C9.82726 15.4279 10.8189 14.9537 11.5374 14.0052C12.2559 13.028 12.6152 11.6915 12.6152 9.9957C12.6152 8.58735 12.4428 7.5239 12.0979 6.80535C11.7817 6.08681 11.3075 5.5982 10.6751 5.33952C10.0716 5.08084 9.32428 4.95151 8.43328 4.95151H6.83811C6.6944 4.95151 6.5938 4.96588 6.53632 4.99462C6.50758 5.02336 6.49321 5.13833 6.49321 5.33952V15.083ZM29.4187 4.08925C29.4187 4.95151 29.2319 5.61257 28.8583 6.07244C28.4846 6.50356 27.7086 6.71913 26.5302 6.71913C25.4093 6.71913 24.6332 6.50356 24.2021 6.07244C23.7997 5.61257 23.5985 4.95151 23.5985 4.08925C23.5985 3.34196 23.7997 2.73839 24.2021 2.27852C24.6332 1.78991 25.4093 1.5456 26.5302 1.5456C27.7661 1.5456 28.5565 1.78991 28.9014 2.27852C29.2463 2.73839 29.4187 3.34196 29.4187 4.08925ZM29.2894 29.4826C29.2894 29.8275 29.1026 30 28.7289 30H24.2883C23.9434 30 23.771 29.8275 23.771 29.4826V10.1681C23.771 9.82324 23.9434 9.65079 24.2883 9.65079H28.7289C29.1026 9.65079 29.2894 9.82324 29.2894 10.1681V29.4826ZM40.9261 30C38.9717 30 37.5058 29.5976 36.5286 28.7928C35.5801 27.9593 34.9478 26.8097 34.6317 25.3438C34.4017 24.1367 34.2724 22.9008 34.2437 21.6361C34.2437 20.3715 34.2437 19.0925 34.2437 17.7991C34.2437 16.9656 34.2437 16.2327 34.2437 15.6003C34.2724 14.968 34.3011 14.2639 34.3299 13.4878C34.3299 13.2004 34.2005 13.0567 33.9419 13.0567H32.1742C31.9443 13.0567 31.7862 13.028 31.7 12.9705C31.6425 12.913 31.6138 12.7405 31.6138 12.4531V10.2975C31.6138 9.95258 31.6425 9.76576 31.7 9.73702C31.7862 9.67953 31.9874 9.65079 32.3036 9.65079H34.0712C34.3011 9.65079 34.4305 9.59331 34.4592 9.47834C34.488 9.36338 34.5167 9.17655 34.5454 8.91788L34.7179 5.68442C34.7179 5.33952 34.8903 5.16707 35.2352 5.16707H39.5465C39.6902 5.16707 39.8339 5.22455 39.9776 5.33952C40.1214 5.42575 40.1788 5.54071 40.1501 5.68442L39.9345 8.91788C39.9058 9.26278 39.9058 9.47834 39.9345 9.56457C39.992 9.62205 40.107 9.65079 40.2794 9.65079H43.9009C44.1883 9.65079 44.3608 9.69391 44.4183 9.78013C44.4757 9.83762 44.5045 10.0388 44.5045 10.3837V12.41C44.5045 12.6974 44.4614 12.8842 44.3751 12.9705C44.2889 13.028 44.1021 13.0567 43.8147 13.0567H40.2363C40.0639 13.0567 39.9345 13.1142 39.8483 13.2291C39.7908 13.3154 39.7621 13.4591 39.7621 13.6603C39.7333 14.4076 39.7046 15.1692 39.6759 15.9453C39.6471 16.6925 39.6327 17.4686 39.6327 18.2733C39.6327 19.2793 39.6471 20.2996 39.6759 21.3343C39.7333 22.3403 39.8627 23.3175 40.0639 24.266C40.2363 24.8121 40.4806 25.2001 40.7968 25.4301C41.1129 25.66 41.5297 25.775 42.0471 25.775C42.392 25.775 42.7225 25.7318 43.0386 25.6456C43.3548 25.5306 43.6279 25.4444 43.8578 25.3869C44.2027 25.1857 44.4183 25.1283 44.5045 25.2145C44.5907 25.272 44.6913 25.4444 44.8063 25.7318L45.5392 28.3186C45.6542 28.5198 45.6254 28.7066 45.453 28.8791C45.2805 29.0228 44.9356 29.1952 44.4183 29.3964C44.0734 29.5114 43.6997 29.6264 43.2973 29.7413C42.8949 29.8275 42.4926 29.8994 42.0902 29.9569C41.6878 29.9856 41.2998 30 40.9261 30ZM54.0065 4.08925C54.0065 4.95151 53.8196 5.61257 53.446 6.07244C53.0724 6.50356 52.2963 6.71913 51.1179 6.71913C49.997 6.71913 49.2209 6.50356 48.7898 6.07244C48.3874 5.61257 48.1862 4.95151 48.1862 4.08925C48.1862 3.34196 48.3874 2.73839 48.7898 2.27852C49.2209 1.78991 49.997 1.5456 51.1179 1.5456C52.3538 1.5456 53.1442 1.78991 53.4891 2.27852C53.834 2.73839 54.0065 3.34196 54.0065 4.08925ZM53.8771 29.4826C53.8771 29.8275 53.6903 30 53.3167 30H48.876C48.5311 30 48.3587 29.8275 48.3587 29.4826V10.1681C48.3587 9.82324 48.5311 9.65079 48.876 9.65079H53.3167C53.6903 9.65079 53.8771 9.82324 53.8771 10.1681V29.4826ZM57.538 29.8275V0.726459C57.538 0.611492 57.5955 0.554008 57.7104 0.554008H62.884C62.9989 0.554008 63.0564 0.611492 63.0564 0.726459V16.3764C63.0564 16.4339 63.0564 16.5201 63.0564 16.6351C63.0852 16.75 63.1283 16.8075 63.1858 16.8075C63.3007 16.8075 63.4301 16.7931 63.5738 16.7644C63.7462 16.7069 63.8899 16.6638 64.0049 16.6351C64.2061 16.4626 64.3642 16.3189 64.4791 16.2039C64.5941 16.089 64.7378 15.8878 64.9103 15.6003C65.3414 15.0255 65.7007 14.465 65.9881 13.919C66.3043 13.3441 66.5917 12.7693 66.8503 12.1944C67.1378 11.5909 67.4252 10.9298 67.7126 10.2113C67.8276 9.92384 67.9569 9.76576 68.1006 9.73702C68.2443 9.67953 68.4886 9.65079 68.8335 9.65079H73.2741C73.5328 9.65079 73.6622 9.73702 73.6622 9.90947C73.6909 10.0532 73.6765 10.1825 73.619 10.2975C73.5616 10.4125 73.4035 10.743 73.1448 11.2891C72.9149 11.8352 72.5987 12.4962 72.1963 13.2723C71.7939 14.0483 71.3341 14.8674 70.8167 15.7297C70.2994 16.5632 69.7389 17.3392 69.1353 18.0578C69.0204 18.2015 68.9198 18.3165 68.8335 18.4027C68.7473 18.4889 68.6611 18.5895 68.5749 18.7045C68.6323 18.7332 68.7186 18.7763 68.8335 18.8338C68.9485 18.8913 69.0204 18.9488 69.0491 19.0063C69.5377 19.4949 70.0407 20.1703 70.558 21.0326C71.1041 21.8661 71.6215 22.7714 72.1101 23.7487C72.5987 24.7259 73.0442 25.66 73.4466 26.551C73.849 27.4132 74.1651 28.1318 74.3951 28.7066C74.6538 29.2815 74.7975 29.5976 74.8262 29.6551C74.9412 29.885 74.8981 30 74.6969 30C74.6106 30 74.3088 30 73.7915 30C73.2741 30 72.6993 30 72.067 30C71.4634 30 70.9029 30 70.3856 30C69.897 30 69.6096 30 69.5233 30C69.4084 30 69.3365 30 69.3078 30C69.279 29.9713 69.2215 29.8707 69.1353 29.6982C69.1353 29.6982 69.0204 29.497 68.7904 29.0946C68.5892 28.6635 68.3162 28.1318 67.9713 27.4995C67.6551 26.8671 67.3102 26.2061 66.9366 25.5163C66.5629 24.7977 66.218 24.151 65.9019 23.5762C65.5857 23.0014 65.3414 22.5846 65.169 22.3259C65.054 22.096 64.8959 21.8517 64.6947 21.593C64.5223 21.3343 64.3067 21.1331 64.048 20.9894C63.7893 20.8457 63.5019 20.8457 63.1858 20.9894C63.0995 21.0757 63.0564 21.2912 63.0564 21.6361V29.8275C63.0564 29.9425 62.9989 30 62.884 30H57.7104C57.5955 30 57.538 29.9425 57.538 29.8275Z" fill="white"/>
</svg>
